<svg xmlns="http://www.w3.org/2000/svg" xmlns:xlink="http://www.w3.org/1999/xlink" width="500" zoomAndPan="magnify" viewBox="0 0 500 500" height="500" preserveAspectRatio="xMidYMid meet" version="1.0"><defs><g/></defs><g fill="rgb(74.899292%, 64.709473%, 88.62915%)" fill-opacity="1"><g transform="translate(88.688377, 327.632849)"><g><path d="M 194.007812 -22.914062 C 194.007812 -22.914062 151.105469 -83.910156 128.015625 -111.820312 C 156.273438 -139.734375 223.8125 -202.105469 222.78125 -203.828125 C 210.71875 -223.46875 172.988281 -254.136719 172.988281 -254.136719 L 164.714844 -256.035156 C 164.714844 -256.035156 128.363281 -224.160156 89.59375 -177.121094 C 90.457031 -221.230469 90.972656 -252.585938 90.113281 -252.761719 C 62.542969 -259.136719 43.074219 -257.585938 43.074219 -257.585938 L 34.460938 -255 C 34.460938 -255 29.980469 -90.628906 35.664062 -16.539062 L 41.523438 -8.613281 L 76.84375 -8.441406 C 76.84375 -8.441406 77.878906 -39.457031 79.085938 -88.90625 C 89.421875 -75.636719 117.679688 -47.039062 159.546875 -4.824219 L 169.195312 -2.414062 Z M 194.007812 -22.914062 "/></g></g></g><path stroke-linecap="butt" transform="matrix(2.05848, 0, 0, 2.05848, 73.093543, 11.499968)" fill="none" stroke-linejoin="miter" d="M 94.248202 134.867064 C 94.248202 134.867064 73.406441 105.23734 62.189501 91.678715 C 75.917017 78.118192 108.727182 47.818602 108.226206 46.981743 C 102.366299 37.440418 84.035113 22.540163 84.035113 22.540163 L 80.017813 21.619808 C 80.017813 21.619808 62.356494 37.104536 43.524332 59.955896 C 43.94371 38.527765 44.194198 23.293525 43.77482 23.210029 C 30.383187 20.113083 20.925358 20.866446 20.925358 20.866446 L 16.741065 22.122682 C 16.741065 22.122682 14.564474 101.973402 17.325538 137.964009 L 20.171995 141.814317 L 37.33044 141.897813 C 37.33044 141.897813 37.833314 126.832463 38.419685 102.810261 C 43.440836 109.25464 57.168351 123.149148 77.507237 143.656924 L 82.194404 144.827767 Z M 94.248202 134.867064 " stroke="rgb(0%, 0%, 0%)" stroke-width="6.428362" stroke-opacity="1" stroke-miterlimit="4"/></svg>